<?xml version="1.0" encoding="utf-8" standalone="no"?>
<!DOCTYPE svg PUBLIC "-//W3C//DTD SVG 1.1//EN"
  "http://www.w3.org/Graphics/SVG/1.1/DTD/svg11.dtd">
<!-- Created with matplotlib (http://matplotlib.org/) -->
<svg height="720pt" version="1.1" viewBox="0 0 720 720" width="720pt" xmlns="http://www.w3.org/2000/svg" xmlns:xlink="http://www.w3.org/1999/xlink">
 <defs>
  <style type="text/css">
*{stroke-linecap:butt;stroke-linejoin:round;}
  </style>
 </defs>
 <g id="figure_1">
  <g id="patch_1">
   <path d="
M0 720
L720 720
L720 0
L0 0
z
" style="fill:#ffffff;"/>
  </g>
  <g id="axes_1">
   <g id="patch_2">
    <path d="
M90 648
L648 648
L648 72
L90 72
z
" style="fill:#ffffff;"/>
   </g>
   <g id="line2d_1">
    <path clip-path="url(#p8deeaca9bf)" d="
M90 615.395
L99.4955 609.095
L108.991 602.519
L117.928 596.057
L126.306 589.734
L134.685 583.133
L142.505 576.696
L150.324 569.969
L157.586 563.436
L164.847 556.602
L171.55 549.999
L178.252 543.084
L184.396 536.444
L190.541 529.486
L196.685 522.177
L202.27 515.192
L207.856 507.848
L212.883 500.897
L217.91 493.585
L222.937 485.869
L227.405 478.629
L231.874 470.985
L236.342 462.885
L240.252 455.374
L244.162 447.411
L248.072 438.934
L251.982 429.861
L255.333 421.534
L258.685 412.614
L262.036 402.996
L264.829 394.353
L267.622 385.03
L270.414 374.895
L273.207 363.767
L275.441 353.988
L277.676 343.241
L279.91 331.284
L281.586 321.314
L283.261 310.257
L284.937 297.811
L286.613 283.527
L288.288 266.692
L289.405 253.48
L290.523 238.007
L291.64 219.275
L292.757 195.465
L293.874 162.83
L294.432 140.884
L295.55 83.979
L296.108 79.0541
L297.784 154.736
L298.901 186.418
L300.018 208.669
L301.135 225.564
L302.252 239.052
L303.369 250.191
L304.486 259.613
L306.162 271.377
L307.838 281.037
L309.514 289.124
L311.189 295.986
L312.865 301.863
L314.541 306.925
L316.216 311.298
L317.892 315.076
L319.568 318.332
L321.243 321.123
L322.919 323.493
L324.595 325.477
L326.27 327.101
L327.946 328.389
L329.622 329.354
L331.297 330.01
L332.973 330.364
L334.649 330.42
L336.324 330.178
L338 329.636
L339.676 328.788
L341.351 327.623
L343.027 326.127
L344.703 324.281
L346.378 322.059
L348.054 319.431
L349.73 316.355
L351.405 312.78
L353.081 308.64
L354.757 303.849
L356.432 298.295
L358.108 291.826
L359.784 284.232
L361.459 275.212
L362.577 268.194
L363.694 260.155
L364.811 250.825
L365.928 239.809
L367.045 226.492
L368.162 209.855
L369.279 188.026
L369.838 174.093
L370.396 157.127
L370.955 135.881
L372.072 81.3906
L372.631 81.1718
L373.748 137.775
L374.865 178.578
L375.982 206.68
L377.099 227.961
L378.216 245.106
L379.333 259.497
L381.009 277.564
L382.685 292.701
L384.36 305.773
L386.036 317.309
L388.27 330.887
L390.505 342.888
L392.739 353.668
L394.973 363.475
L397.766 374.629
L400.559 384.787
L403.351 394.129
L406.144 402.788
L409.495 412.421
L412.847 421.355
L416.198 429.693
L420.108 438.777
L424.018 447.265
L427.928 455.236
L432.396 463.795
L436.865 471.842
L441.333 479.439
L446.36 487.512
L451.387 495.14
L456.414 502.374
L462 509.999
L467.586 517.235
L473.171 524.123
L479.315 531.337
L485.459 538.209
L492.162 545.353
L498.865 552.164
L505.568 558.672
L512.829 565.414
L520.09 571.862
L527.91 578.506
L535.73 584.866
L544.108 591.393
L552.486 597.647
L561.423 604.044
L570.919 610.554
L580.414 616.796
L590.468 623.135
L601.081 629.55
L611.694 635.704
L622.865 641.924
L634.595 648.193
L646.324 654.213
L648 655.054
L648 655.054" style="fill:none;stroke:#008000;stroke-linecap:square;"/>
   </g>
   <g id="line2d_2">
    <defs>
     <path d="
M0 3
C0.795609 3 1.55874 2.6839 2.12132 2.12132
C2.6839 1.55874 3 0.795609 3 0
C3 -0.795609 2.6839 -1.55874 2.12132 -2.12132
C1.55874 -2.6839 0.795609 -3 0 -3
C-0.795609 -3 -1.55874 -2.6839 -2.12132 -2.12132
C-2.6839 -1.55874 -3 -0.795609 -3 0
C-3 0.795609 -2.6839 1.55874 -2.12132 2.12132
C-1.55874 2.6839 -0.795609 3 0 3
z
" id="m8b0675cc3b" style="stroke:#000000;stroke-width:0.5;"/>
    </defs>
    <g clip-path="url(#p8deeaca9bf)">
     <use style="stroke:#000000;stroke-width:0.5;" x="385.849374649" xlink:href="#m8b0675cc3b" y="262.570698041"/>
     <use style="stroke:#000000;stroke-width:0.5;" x="282.400625351" xlink:href="#m8b0675cc3b" y="262.570698041"/>
    </g>
   </g>
   <g id="patch_3">
    <path d="
M90 72
L648 72" style="fill:none;stroke:#000000;stroke-linecap:square;stroke-linejoin:miter;"/>
   </g>
   <g id="patch_4">
    <path d="
M648 648
L648 72" style="fill:none;stroke:#000000;stroke-linecap:square;stroke-linejoin:miter;"/>
   </g>
   <g id="patch_5">
    <path d="
M90 648
L648 648" style="fill:none;stroke:#000000;stroke-linecap:square;stroke-linejoin:miter;"/>
   </g>
   <g id="patch_6">
    <path d="
M90 648
L90 72" style="fill:none;stroke:#000000;stroke-linecap:square;stroke-linejoin:miter;"/>
   </g>
   <g id="matplotlib.axis_1">
    <g id="xtick_1">
     <g id="line2d_3">
      <defs>
       <path d="
M0 0
L0 -4" id="m93b0483c22" style="stroke:#000000;stroke-width:0.5;"/>
      </defs>
      <g>
       <use style="stroke:#000000;stroke-width:0.5;" x="90.0" xlink:href="#m93b0483c22" y="648.0"/>
      </g>
     </g>
     <g id="line2d_4">
      <defs>
       <path d="
M0 0
L0 4" id="m741efc42ff" style="stroke:#000000;stroke-width:0.5;"/>
      </defs>
      <g>
       <use style="stroke:#000000;stroke-width:0.5;" x="90.0" xlink:href="#m741efc42ff" y="72.0"/>
      </g>
     </g>
     <g id="text_1">
      <!-- −2.0 -->
      <defs>
       <path d="
M31.7812 66.4062
Q24.1719 66.4062 20.3281 58.9062
Q16.5 51.4219 16.5 36.375
Q16.5 21.3906 20.3281 13.8906
Q24.1719 6.39062 31.7812 6.39062
Q39.4531 6.39062 43.2812 13.8906
Q47.125 21.3906 47.125 36.375
Q47.125 51.4219 43.2812 58.9062
Q39.4531 66.4062 31.7812 66.4062
M31.7812 74.2188
Q44.0469 74.2188 50.5156 64.5156
Q56.9844 54.8281 56.9844 36.375
Q56.9844 17.9688 50.5156 8.26562
Q44.0469 -1.42188 31.7812 -1.42188
Q19.5312 -1.42188 13.0625 8.26562
Q6.59375 17.9688 6.59375 36.375
Q6.59375 54.8281 13.0625 64.5156
Q19.5312 74.2188 31.7812 74.2188" id="DejaVuSans-30"/>
       <path d="
M10.6875 12.4062
L21 12.4062
L21 0
L10.6875 0
z
" id="DejaVuSans-2e"/>
       <path d="
M19.1875 8.29688
L53.6094 8.29688
L53.6094 0
L7.32812 0
L7.32812 8.29688
Q12.9375 14.1094 22.625 23.8906
Q32.3281 33.6875 34.8125 36.5312
Q39.5469 41.8438 41.4219 45.5312
Q43.3125 49.2188 43.3125 52.7812
Q43.3125 58.5938 39.2344 62.25
Q35.1562 65.9219 28.6094 65.9219
Q23.9688 65.9219 18.8125 64.3125
Q13.6719 62.7031 7.8125 59.4219
L7.8125 69.3906
Q13.7656 71.7812 18.9375 73
Q24.125 74.2188 28.4219 74.2188
Q39.75 74.2188 46.4844 68.5469
Q53.2188 62.8906 53.2188 53.4219
Q53.2188 48.9219 51.5312 44.8906
Q49.8594 40.875 45.4062 35.4062
Q44.1875 33.9844 37.6406 27.2188
Q31.1094 20.4531 19.1875 8.29688" id="DejaVuSans-32"/>
       <path d="
M10.5938 35.5
L73.1875 35.5
L73.1875 27.2031
L10.5938 27.2031
z
" id="DejaVuSans-2212"/>
      </defs>
      <g transform="translate(67.440625 667.196875)scale(0.2 -0.2)">
       <use xlink:href="#DejaVuSans-2212"/>
       <use x="83.7890625" xlink:href="#DejaVuSans-32"/>
       <use x="147.412109375" xlink:href="#DejaVuSans-2e"/>
       <use x="179.19921875" xlink:href="#DejaVuSans-30"/>
      </g>
     </g>
    </g>
    <g id="xtick_2">
     <g id="line2d_5">
      <g>
       <use style="stroke:#000000;stroke-width:0.5;" x="159.75" xlink:href="#m93b0483c22" y="648.0"/>
      </g>
     </g>
     <g id="line2d_6">
      <g>
       <use style="stroke:#000000;stroke-width:0.5;" x="159.75" xlink:href="#m741efc42ff" y="72.0"/>
      </g>
     </g>
     <g id="text_2">
      <!-- −1.5 -->
      <defs>
       <path d="
M12.4062 8.29688
L28.5156 8.29688
L28.5156 63.9219
L10.9844 60.4062
L10.9844 69.3906
L28.4219 72.9062
L38.2812 72.9062
L38.2812 8.29688
L54.3906 8.29688
L54.3906 0
L12.4062 0
z
" id="DejaVuSans-31"/>
       <path d="
M10.7969 72.9062
L49.5156 72.9062
L49.5156 64.5938
L19.8281 64.5938
L19.8281 46.7344
Q21.9688 47.4688 24.1094 47.8281
Q26.2656 48.1875 28.4219 48.1875
Q40.625 48.1875 47.75 41.5
Q54.8906 34.8125 54.8906 23.3906
Q54.8906 11.625 47.5625 5.09375
Q40.2344 -1.42188 26.9062 -1.42188
Q22.3125 -1.42188 17.5469 -0.640625
Q12.7969 0.140625 7.71875 1.70312
L7.71875 11.625
Q12.1094 9.23438 16.7969 8.0625
Q21.4844 6.89062 26.7031 6.89062
Q35.1562 6.89062 40.0781 11.3281
Q45.0156 15.7656 45.0156 23.3906
Q45.0156 31 40.0781 35.4375
Q35.1562 39.8906 26.7031 39.8906
Q22.75 39.8906 18.8125 39.0156
Q14.8906 38.1406 10.7969 36.2812
z
" id="DejaVuSans-35"/>
      </defs>
      <g transform="translate(137.4 667.196875)scale(0.2 -0.2)">
       <use xlink:href="#DejaVuSans-2212"/>
       <use x="83.7890625" xlink:href="#DejaVuSans-31"/>
       <use x="147.412109375" xlink:href="#DejaVuSans-2e"/>
       <use x="179.19921875" xlink:href="#DejaVuSans-35"/>
      </g>
     </g>
    </g>
    <g id="xtick_3">
     <g id="line2d_7">
      <g>
       <use style="stroke:#000000;stroke-width:0.5;" x="229.5" xlink:href="#m93b0483c22" y="648.0"/>
      </g>
     </g>
     <g id="line2d_8">
      <g>
       <use style="stroke:#000000;stroke-width:0.5;" x="229.5" xlink:href="#m741efc42ff" y="72.0"/>
      </g>
     </g>
     <g id="text_3">
      <!-- −1.0 -->
      <g transform="translate(206.940625 667.196875)scale(0.2 -0.2)">
       <use xlink:href="#DejaVuSans-2212"/>
       <use x="83.7890625" xlink:href="#DejaVuSans-31"/>
       <use x="147.412109375" xlink:href="#DejaVuSans-2e"/>
       <use x="179.19921875" xlink:href="#DejaVuSans-30"/>
      </g>
     </g>
    </g>
    <g id="xtick_4">
     <g id="line2d_9">
      <g>
       <use style="stroke:#000000;stroke-width:0.5;" x="299.25" xlink:href="#m93b0483c22" y="648.0"/>
      </g>
     </g>
     <g id="line2d_10">
      <g>
       <use style="stroke:#000000;stroke-width:0.5;" x="299.25" xlink:href="#m741efc42ff" y="72.0"/>
      </g>
     </g>
     <g id="text_4">
      <!-- −0.5 -->
      <g transform="translate(276.9 667.196875)scale(0.2 -0.2)">
       <use xlink:href="#DejaVuSans-2212"/>
       <use x="83.7890625" xlink:href="#DejaVuSans-30"/>
       <use x="147.412109375" xlink:href="#DejaVuSans-2e"/>
       <use x="179.19921875" xlink:href="#DejaVuSans-35"/>
      </g>
     </g>
    </g>
    <g id="xtick_5">
     <g id="line2d_11">
      <g>
       <use style="stroke:#000000;stroke-width:0.5;" x="369.0" xlink:href="#m93b0483c22" y="648.0"/>
      </g>
     </g>
     <g id="line2d_12">
      <g>
       <use style="stroke:#000000;stroke-width:0.5;" x="369.0" xlink:href="#m741efc42ff" y="72.0"/>
      </g>
     </g>
     <g id="text_5">
      <!-- 0.0 -->
      <g transform="translate(354.4203125 667.196875)scale(0.2 -0.2)">
       <use xlink:href="#DejaVuSans-30"/>
       <use x="63.623046875" xlink:href="#DejaVuSans-2e"/>
       <use x="95.41015625" xlink:href="#DejaVuSans-30"/>
      </g>
     </g>
    </g>
    <g id="xtick_6">
     <g id="line2d_13">
      <g>
       <use style="stroke:#000000;stroke-width:0.5;" x="438.75" xlink:href="#m93b0483c22" y="648.0"/>
      </g>
     </g>
     <g id="line2d_14">
      <g>
       <use style="stroke:#000000;stroke-width:0.5;" x="438.75" xlink:href="#m741efc42ff" y="72.0"/>
      </g>
     </g>
     <g id="text_6">
      <!-- 0.5 -->
      <g transform="translate(424.3796875 667.196875)scale(0.2 -0.2)">
       <use xlink:href="#DejaVuSans-30"/>
       <use x="63.623046875" xlink:href="#DejaVuSans-2e"/>
       <use x="95.41015625" xlink:href="#DejaVuSans-35"/>
      </g>
     </g>
    </g>
    <g id="xtick_7">
     <g id="line2d_15">
      <g>
       <use style="stroke:#000000;stroke-width:0.5;" x="508.5" xlink:href="#m93b0483c22" y="648.0"/>
      </g>
     </g>
     <g id="line2d_16">
      <g>
       <use style="stroke:#000000;stroke-width:0.5;" x="508.5" xlink:href="#m741efc42ff" y="72.0"/>
      </g>
     </g>
     <g id="text_7">
      <!-- 1.0 -->
      <g transform="translate(494.359375 667.196875)scale(0.2 -0.2)">
       <use xlink:href="#DejaVuSans-31"/>
       <use x="63.623046875" xlink:href="#DejaVuSans-2e"/>
       <use x="95.41015625" xlink:href="#DejaVuSans-30"/>
      </g>
     </g>
    </g>
    <g id="xtick_8">
     <g id="line2d_17">
      <g>
       <use style="stroke:#000000;stroke-width:0.5;" x="578.25" xlink:href="#m93b0483c22" y="648.0"/>
      </g>
     </g>
     <g id="line2d_18">
      <g>
       <use style="stroke:#000000;stroke-width:0.5;" x="578.25" xlink:href="#m741efc42ff" y="72.0"/>
      </g>
     </g>
     <g id="text_8">
      <!-- 1.5 -->
      <g transform="translate(564.31875 667.196875)scale(0.2 -0.2)">
       <use xlink:href="#DejaVuSans-31"/>
       <use x="63.623046875" xlink:href="#DejaVuSans-2e"/>
       <use x="95.41015625" xlink:href="#DejaVuSans-35"/>
      </g>
     </g>
    </g>
    <g id="xtick_9">
     <g id="line2d_19">
      <g>
       <use style="stroke:#000000;stroke-width:0.5;" x="648.0" xlink:href="#m93b0483c22" y="648.0"/>
      </g>
     </g>
     <g id="line2d_20">
      <g>
       <use style="stroke:#000000;stroke-width:0.5;" x="648.0" xlink:href="#m741efc42ff" y="72.0"/>
      </g>
     </g>
     <g id="text_9">
      <!-- 2.0 -->
      <g transform="translate(633.49375 667.196875)scale(0.2 -0.2)">
       <use xlink:href="#DejaVuSans-32"/>
       <use x="63.623046875" xlink:href="#DejaVuSans-2e"/>
       <use x="95.41015625" xlink:href="#DejaVuSans-30"/>
      </g>
     </g>
    </g>
    <g id="text_10">
     <!-- Energy $\epsilon$ -->
     <defs>
      <path d="
M54.8906 33.0156
L54.8906 0
L45.9062 0
L45.9062 32.7188
Q45.9062 40.4844 42.875 44.3281
Q39.8438 48.1875 33.7969 48.1875
Q26.5156 48.1875 22.3125 43.5469
Q18.1094 38.9219 18.1094 30.9062
L18.1094 0
L9.07812 0
L9.07812 54.6875
L18.1094 54.6875
L18.1094 46.1875
Q21.3438 51.125 25.7031 53.5625
Q30.0781 56 35.7969 56
Q45.2188 56 50.0469 50.1719
Q54.8906 44.3438 54.8906 33.0156" id="DejaVuSans-6e"/>
      <path d="
M9.8125 72.9062
L55.9062 72.9062
L55.9062 64.5938
L19.6719 64.5938
L19.6719 43.0156
L54.3906 43.0156
L54.3906 34.7188
L19.6719 34.7188
L19.6719 8.29688
L56.7812 8.29688
L56.7812 0
L9.8125 0
z
" id="DejaVuSans-45"/>
      <path id="DejaVuSans-20"/>
      <path d="
M32.1719 -5.07812
Q28.375 -14.8438 24.75 -17.8125
Q21.1406 -20.7969 15.0938 -20.7969
L7.90625 -20.7969
L7.90625 -13.2812
L13.1875 -13.2812
Q16.8906 -13.2812 18.9375 -11.5156
Q21 -9.76562 23.4844 -3.21875
L25.0938 0.875
L2.98438 54.6875
L12.5 54.6875
L29.5938 11.9219
L46.6875 54.6875
L56.2031 54.6875
z
" id="DejaVuSans-79"/>
      <path d="
M45.4062 27.9844
Q45.4062 37.75 41.375 43.1094
Q37.3594 48.4844 30.0781 48.4844
Q22.8594 48.4844 18.8281 43.1094
Q14.7969 37.75 14.7969 27.9844
Q14.7969 18.2656 18.8281 12.8906
Q22.8594 7.51562 30.0781 7.51562
Q37.3594 7.51562 41.375 12.8906
Q45.4062 18.2656 45.4062 27.9844
M54.3906 6.78125
Q54.3906 -7.17188 48.1875 -13.9844
Q42 -20.7969 29.2031 -20.7969
Q24.4688 -20.7969 20.2656 -20.0938
Q16.0625 -19.3906 12.1094 -17.9219
L12.1094 -9.1875
Q16.0625 -11.3281 19.9219 -12.3438
Q23.7812 -13.375 27.7812 -13.375
Q36.625 -13.375 41.0156 -8.76562
Q45.4062 -4.15625 45.4062 5.17188
L45.4062 9.625
Q42.625 4.78125 38.2812 2.39062
Q33.9375 0 27.875 0
Q17.8281 0 11.6719 7.65625
Q5.51562 15.3281 5.51562 27.9844
Q5.51562 40.6719 11.6719 48.3281
Q17.8281 56 27.875 56
Q33.9375 56 38.2812 53.6094
Q42.625 51.2188 45.4062 46.3906
L45.4062 54.6875
L54.3906 54.6875
z
" id="DejaVuSans-67"/>
      <path d="
M12.3125 14.1094
Q12.3125 10.75 13.5312 7.85938
Q14.75 4.98438 17.2031 3.25
Q19.6719 1.51562 23 1.51562
Q25.25 1.51562 27.7812 2.48438
Q30.3281 3.46875 32.5 4.64062
Q34.6719 5.8125 34.7188 5.8125
Q35.25 5.8125 35.5625 5.20312
Q35.8906 4.59375 35.8906 4
Q35.8906 3.46875 35.5938 3.32812
Q29.3438 -1.125 22.9062 -1.125
Q17.625 -1.125 13.375 1.34375
Q9.125 3.8125 6.8125 8.20312
Q4.5 12.5938 4.5 17.8281
Q4.5 23 6.59375 27.6562
Q8.6875 32.3281 12.3906 35.7969
Q16.1094 39.2656 20.7969 41.1875
Q25.4844 43.1094 30.6094 43.1094
L36.2812 43.1094
Q37.7969 43.1094 37.7969 41.6094
Q37.7969 40.7656 37.2344 40.1719
Q36.6719 39.5938 35.8906 39.5938
L30.4219 39.5938
Q26.4219 39.5938 23.1719 37.8281
Q19.9219 36.0781 17.7188 32.9531
Q15.5312 29.8281 14.3125 25.875
L31.9844 25.875
Q32.6719 25.875 33.0781 25.4531
Q33.5 25.0469 33.5 24.4219
Q33.5 23.5781 32.9531 22.9844
Q32.4219 22.4062 31.5938 22.4062
L13.375 22.4062
Q12.3125 17.2344 12.3125 14.1094" id="Cmmi10-b2"/>
      <path d="
M56.2031 29.5938
L56.2031 25.2031
L14.8906 25.2031
Q15.4844 15.9219 20.4844 11.0625
Q25.4844 6.20312 34.4219 6.20312
Q39.5938 6.20312 44.4531 7.46875
Q49.3125 8.73438 54.1094 11.2812
L54.1094 2.78125
Q49.2656 0.734375 44.1875 -0.34375
Q39.1094 -1.42188 33.8906 -1.42188
Q20.7969 -1.42188 13.1562 6.1875
Q5.51562 13.8125 5.51562 26.8125
Q5.51562 40.2344 12.7656 48.1094
Q20.0156 56 32.3281 56
Q43.3594 56 49.7812 48.8906
Q56.2031 41.7969 56.2031 29.5938
M47.2188 32.2344
Q47.125 39.5938 43.0938 43.9844
Q39.0625 48.3906 32.4219 48.3906
Q24.9062 48.3906 20.3906 44.1406
Q15.875 39.8906 15.1875 32.1719
z
" id="DejaVuSans-65"/>
      <path d="
M41.1094 46.2969
Q39.5938 47.1719 37.8125 47.5781
Q36.0312 48 33.8906 48
Q26.2656 48 22.1875 43.0469
Q18.1094 38.0938 18.1094 28.8125
L18.1094 0
L9.07812 0
L9.07812 54.6875
L18.1094 54.6875
L18.1094 46.1875
Q20.9531 51.1719 25.4844 53.5781
Q30.0312 56 36.5312 56
Q37.4531 56 38.5781 55.875
Q39.7031 55.7656 41.0625 55.5156
z
" id="DejaVuSans-72"/>
     </defs>
     <g transform="translate(305.25 699.090625)scale(0.3 -0.3)">
      <use transform="translate(0.0 0.09375)" xlink:href="#DejaVuSans-45"/>
      <use transform="translate(63.18359375 0.09375)" xlink:href="#DejaVuSans-6e"/>
      <use transform="translate(126.5625 0.09375)" xlink:href="#DejaVuSans-65"/>
      <use transform="translate(188.0859375 0.09375)" xlink:href="#DejaVuSans-72"/>
      <use transform="translate(229.19921875 0.09375)" xlink:href="#DejaVuSans-67"/>
      <use transform="translate(292.67578125 0.09375)" xlink:href="#DejaVuSans-79"/>
      <use transform="translate(351.85546875 0.09375)" xlink:href="#DejaVuSans-20"/>
      <use transform="translate(383.642578125 0.09375)" xlink:href="#Cmmi10-b2"/>
     </g>
    </g>
   </g>
   <g id="matplotlib.axis_2">
    <g id="ytick_1">
     <g id="line2d_21">
      <defs>
       <path d="
M0 0
L4 0" id="m728421d6d4" style="stroke:#000000;stroke-width:0.5;"/>
      </defs>
      <g>
       <use style="stroke:#000000;stroke-width:0.5;" x="90.0" xlink:href="#m728421d6d4" y="604.96943319"/>
      </g>
     </g>
     <g id="line2d_22">
      <defs>
       <path d="
M0 0
L-4 0" id="mcb0005524f" style="stroke:#000000;stroke-width:0.5;"/>
      </defs>
      <g>
       <use style="stroke:#000000;stroke-width:0.5;" x="648.0" xlink:href="#mcb0005524f" y="604.96943319"/>
      </g>
     </g>
     <g id="text_11">
      <!-- $\mathdefault{10^{-10}}$ -->
      <defs>
       <path d="
M4.89062 31.3906
L31.2031 31.3906
L31.2031 23.3906
L4.89062 23.3906
z
" id="DejaVuSans-2d"/>
      </defs>
      <g transform="translate(35.4 612.01005819)scale(0.2 -0.2)">
       <use transform="translate(0.0 0.234375)" xlink:href="#DejaVuSans-31"/>
       <use transform="translate(63.623046875 0.234375)" xlink:href="#DejaVuSans-30"/>
       <use transform="translate(127.24609375 58.046875)scale(0.7)" xlink:href="#DejaVuSans-2d"/>
       <use transform="translate(152.504882812 58.046875)scale(0.7)" xlink:href="#DejaVuSans-31"/>
       <use transform="translate(197.041015625 58.046875)scale(0.7)" xlink:href="#DejaVuSans-30"/>
      </g>
     </g>
    </g>
    <g id="ytick_2">
     <g id="line2d_23">
      <g>
       <use style="stroke:#000000;stroke-width:0.5;" x="90.0" xlink:href="#m728421d6d4" y="515.881386335"/>
      </g>
     </g>
     <g id="line2d_24">
      <g>
       <use style="stroke:#000000;stroke-width:0.5;" x="648.0" xlink:href="#mcb0005524f" y="515.881386335"/>
      </g>
     </g>
     <g id="text_12">
      <!-- $\mathdefault{10^{-9}}$ -->
      <defs>
       <path d="
M10.9844 1.51562
L10.9844 10.5
Q14.7031 8.73438 18.5 7.8125
Q22.3125 6.89062 25.9844 6.89062
Q35.75 6.89062 40.8906 13.4531
Q46.0469 20.0156 46.7812 33.4062
Q43.9531 29.2031 39.5938 26.9531
Q35.25 24.7031 29.9844 24.7031
Q19.0469 24.7031 12.6719 31.3125
Q6.29688 37.9375 6.29688 49.4219
Q6.29688 60.6406 12.9375 67.4219
Q19.5781 74.2188 30.6094 74.2188
Q43.2656 74.2188 49.9219 64.5156
Q56.5938 54.8281 56.5938 36.375
Q56.5938 19.1406 48.4062 8.85938
Q40.2344 -1.42188 26.4219 -1.42188
Q22.7031 -1.42188 18.8906 -0.6875
Q15.0938 0.046875 10.9844 1.51562
M30.6094 32.4219
Q37.25 32.4219 41.125 36.9531
Q45.0156 41.5 45.0156 49.4219
Q45.0156 57.2812 41.125 61.8438
Q37.25 66.4062 30.6094 66.4062
Q23.9688 66.4062 20.0938 61.8438
Q16.2188 57.2812 16.2188 49.4219
Q16.2188 41.5 20.0938 36.9531
Q23.9688 32.4219 30.6094 32.4219" id="DejaVuSans-39"/>
      </defs>
      <g transform="translate(44.4 522.922011335)scale(0.2 -0.2)">
       <use transform="translate(0.0 0.234375)" xlink:href="#DejaVuSans-31"/>
       <use transform="translate(63.623046875 0.234375)" xlink:href="#DejaVuSans-30"/>
       <use transform="translate(127.24609375 58.046875)scale(0.7)" xlink:href="#DejaVuSans-2d"/>
       <use transform="translate(152.504882812 58.046875)scale(0.7)" xlink:href="#DejaVuSans-39"/>
      </g>
     </g>
    </g>
    <g id="ytick_3">
     <g id="line2d_25">
      <g>
       <use style="stroke:#000000;stroke-width:0.5;" x="90.0" xlink:href="#m728421d6d4" y="426.793339479"/>
      </g>
     </g>
     <g id="line2d_26">
      <g>
       <use style="stroke:#000000;stroke-width:0.5;" x="648.0" xlink:href="#mcb0005524f" y="426.793339479"/>
      </g>
     </g>
     <g id="text_13">
      <!-- $\mathdefault{10^{-8}}$ -->
      <defs>
       <path d="
M31.7812 34.625
Q24.75 34.625 20.7188 30.8594
Q16.7031 27.0938 16.7031 20.5156
Q16.7031 13.9219 20.7188 10.1562
Q24.75 6.39062 31.7812 6.39062
Q38.8125 6.39062 42.8594 10.1719
Q46.9219 13.9688 46.9219 20.5156
Q46.9219 27.0938 42.8906 30.8594
Q38.875 34.625 31.7812 34.625
M21.9219 38.8125
Q15.5781 40.375 12.0312 44.7188
Q8.5 49.0781 8.5 55.3281
Q8.5 64.0625 14.7188 69.1406
Q20.9531 74.2188 31.7812 74.2188
Q42.6719 74.2188 48.875 69.1406
Q55.0781 64.0625 55.0781 55.3281
Q55.0781 49.0781 51.5312 44.7188
Q48 40.375 41.7031 38.8125
Q48.8281 37.1562 52.7969 32.3125
Q56.7812 27.4844 56.7812 20.5156
Q56.7812 9.90625 50.3125 4.23438
Q43.8438 -1.42188 31.7812 -1.42188
Q19.7344 -1.42188 13.25 4.23438
Q6.78125 9.90625 6.78125 20.5156
Q6.78125 27.4844 10.7812 32.3125
Q14.7969 37.1562 21.9219 38.8125
M18.3125 54.3906
Q18.3125 48.7344 21.8438 45.5625
Q25.3906 42.3906 31.7812 42.3906
Q38.1406 42.3906 41.7188 45.5625
Q45.3125 48.7344 45.3125 54.3906
Q45.3125 60.0625 41.7188 63.2344
Q38.1406 66.4062 31.7812 66.4062
Q25.3906 66.4062 21.8438 63.2344
Q18.3125 60.0625 18.3125 54.3906" id="DejaVuSans-38"/>
      </defs>
      <g transform="translate(44.4 433.833964479)scale(0.2 -0.2)">
       <use transform="translate(0.0 0.234375)" xlink:href="#DejaVuSans-31"/>
       <use transform="translate(63.623046875 0.234375)" xlink:href="#DejaVuSans-30"/>
       <use transform="translate(127.24609375 58.046875)scale(0.7)" xlink:href="#DejaVuSans-2d"/>
       <use transform="translate(152.504882812 58.046875)scale(0.7)" xlink:href="#DejaVuSans-38"/>
      </g>
     </g>
    </g>
    <g id="ytick_4">
     <g id="line2d_27">
      <g>
       <use style="stroke:#000000;stroke-width:0.5;" x="90.0" xlink:href="#m728421d6d4" y="337.705292624"/>
      </g>
     </g>
     <g id="line2d_28">
      <g>
       <use style="stroke:#000000;stroke-width:0.5;" x="648.0" xlink:href="#mcb0005524f" y="337.705292624"/>
      </g>
     </g>
     <g id="text_14">
      <!-- $\mathdefault{10^{-7}}$ -->
      <defs>
       <path d="
M8.20312 72.9062
L55.0781 72.9062
L55.0781 68.7031
L28.6094 0
L18.3125 0
L43.2188 64.5938
L8.20312 64.5938
z
" id="DejaVuSans-37"/>
      </defs>
      <g transform="translate(44.4 344.645917624)scale(0.2 -0.2)">
       <use transform="translate(0.0 0.153125)" xlink:href="#DejaVuSans-31"/>
       <use transform="translate(63.623046875 0.153125)" xlink:href="#DejaVuSans-30"/>
       <use transform="translate(127.24609375 57.965625)scale(0.7)" xlink:href="#DejaVuSans-2d"/>
       <use transform="translate(152.504882812 57.965625)scale(0.7)" xlink:href="#DejaVuSans-37"/>
      </g>
     </g>
    </g>
    <g id="ytick_5">
     <g id="line2d_29">
      <g>
       <use style="stroke:#000000;stroke-width:0.5;" x="90.0" xlink:href="#m728421d6d4" y="248.617245769"/>
      </g>
     </g>
     <g id="line2d_30">
      <g>
       <use style="stroke:#000000;stroke-width:0.5;" x="648.0" xlink:href="#mcb0005524f" y="248.617245769"/>
      </g>
     </g>
     <g id="text_15">
      <!-- $\mathdefault{10^{-6}}$ -->
      <defs>
       <path d="
M33.0156 40.375
Q26.375 40.375 22.4844 35.8281
Q18.6094 31.2969 18.6094 23.3906
Q18.6094 15.5312 22.4844 10.9531
Q26.375 6.39062 33.0156 6.39062
Q39.6562 6.39062 43.5312 10.9531
Q47.4062 15.5312 47.4062 23.3906
Q47.4062 31.2969 43.5312 35.8281
Q39.6562 40.375 33.0156 40.375
M52.5938 71.2969
L52.5938 62.3125
Q48.875 64.0625 45.0938 64.9844
Q41.3125 65.9219 37.5938 65.9219
Q27.8281 65.9219 22.6719 59.3281
Q17.5312 52.7344 16.7969 39.4062
Q19.6719 43.6562 24.0156 45.9219
Q28.375 48.1875 33.5938 48.1875
Q44.5781 48.1875 50.9531 41.5156
Q57.3281 34.8594 57.3281 23.3906
Q57.3281 12.1562 50.6875 5.35938
Q44.0469 -1.42188 33.0156 -1.42188
Q20.3594 -1.42188 13.6719 8.26562
Q6.98438 17.9688 6.98438 36.375
Q6.98438 53.6562 15.1875 63.9375
Q23.3906 74.2188 37.2031 74.2188
Q40.9219 74.2188 44.7031 73.4844
Q48.4844 72.75 52.5938 71.2969" id="DejaVuSans-36"/>
      </defs>
      <g transform="translate(44.4 255.657870769)scale(0.2 -0.2)">
       <use transform="translate(0.0 0.234375)" xlink:href="#DejaVuSans-31"/>
       <use transform="translate(63.623046875 0.234375)" xlink:href="#DejaVuSans-30"/>
       <use transform="translate(127.24609375 58.046875)scale(0.7)" xlink:href="#DejaVuSans-2d"/>
       <use transform="translate(152.504882812 58.046875)scale(0.7)" xlink:href="#DejaVuSans-36"/>
      </g>
     </g>
    </g>
    <g id="ytick_6">
     <g id="line2d_31">
      <g>
       <use style="stroke:#000000;stroke-width:0.5;" x="90.0" xlink:href="#m728421d6d4" y="159.529198913"/>
      </g>
     </g>
     <g id="line2d_32">
      <g>
       <use style="stroke:#000000;stroke-width:0.5;" x="648.0" xlink:href="#mcb0005524f" y="159.529198913"/>
      </g>
     </g>
     <g id="text_16">
      <!-- $\mathdefault{10^{-5}}$ -->
      <g transform="translate(44.4 166.469823913)scale(0.2 -0.2)">
       <use transform="translate(0.0 0.153125)" xlink:href="#DejaVuSans-31"/>
       <use transform="translate(63.623046875 0.153125)" xlink:href="#DejaVuSans-30"/>
       <use transform="translate(127.24609375 57.965625)scale(0.7)" xlink:href="#DejaVuSans-2d"/>
       <use transform="translate(152.504882812 57.965625)scale(0.7)" xlink:href="#DejaVuSans-35"/>
      </g>
     </g>
    </g>
    <g id="ytick_7">
     <g id="line2d_33">
      <defs>
       <path d="
M0 0
L2 0" id="mf0c55a9a47" style="stroke:#000000;stroke-width:0.5;"/>
      </defs>
      <g>
       <use style="stroke:#000000;stroke-width:0.5;" x="90.0" xlink:href="#mf0c55a9a47" y="640.421131328"/>
      </g>
     </g>
     <g id="line2d_34">
      <defs>
       <path d="
M0 0
L-2 0" id="ma4f294b3af" style="stroke:#000000;stroke-width:0.5;"/>
      </defs>
      <g>
       <use style="stroke:#000000;stroke-width:0.5;" x="648.0" xlink:href="#ma4f294b3af" y="640.421131328"/>
      </g>
     </g>
    </g>
    <g id="ytick_8">
     <g id="line2d_35">
      <g>
       <use style="stroke:#000000;stroke-width:0.5;" x="90.0" xlink:href="#mf0c55a9a47" y="631.787607549"/>
      </g>
     </g>
     <g id="line2d_36">
      <g>
       <use style="stroke:#000000;stroke-width:0.5;" x="648.0" xlink:href="#ma4f294b3af" y="631.787607549"/>
      </g>
     </g>
    </g>
    <g id="ytick_9">
     <g id="line2d_37">
      <g>
       <use style="stroke:#000000;stroke-width:0.5;" x="90.0" xlink:href="#mf0c55a9a47" y="624.733504991"/>
      </g>
     </g>
     <g id="line2d_38">
      <g>
       <use style="stroke:#000000;stroke-width:0.5;" x="648.0" xlink:href="#ma4f294b3af" y="624.733504991"/>
      </g>
     </g>
    </g>
    <g id="ytick_10">
     <g id="line2d_39">
      <g>
       <use style="stroke:#000000;stroke-width:0.5;" x="90.0" xlink:href="#mf0c55a9a47" y="618.769346259"/>
      </g>
     </g>
     <g id="line2d_40">
      <g>
       <use style="stroke:#000000;stroke-width:0.5;" x="648.0" xlink:href="#ma4f294b3af" y="618.769346259"/>
      </g>
     </g>
    </g>
    <g id="ytick_11">
     <g id="line2d_41">
      <g>
       <use style="stroke:#000000;stroke-width:0.5;" x="90.0" xlink:href="#mf0c55a9a47" y="613.60295697"/>
      </g>
     </g>
     <g id="line2d_42">
      <g>
       <use style="stroke:#000000;stroke-width:0.5;" x="648.0" xlink:href="#ma4f294b3af" y="613.60295697"/>
      </g>
     </g>
    </g>
    <g id="ytick_12">
     <g id="line2d_43">
      <g>
       <use style="stroke:#000000;stroke-width:0.5;" x="90.0" xlink:href="#mf0c55a9a47" y="609.045878653"/>
      </g>
     </g>
     <g id="line2d_44">
      <g>
       <use style="stroke:#000000;stroke-width:0.5;" x="648.0" xlink:href="#ma4f294b3af" y="609.045878653"/>
      </g>
     </g>
    </g>
    <g id="ytick_13">
     <g id="line2d_45">
      <g>
       <use style="stroke:#000000;stroke-width:0.5;" x="90.0" xlink:href="#mf0c55a9a47" y="578.151258832"/>
      </g>
     </g>
     <g id="line2d_46">
      <g>
       <use style="stroke:#000000;stroke-width:0.5;" x="648.0" xlink:href="#ma4f294b3af" y="578.151258832"/>
      </g>
     </g>
    </g>
    <g id="ytick_14">
     <g id="line2d_47">
      <g>
       <use style="stroke:#000000;stroke-width:0.5;" x="90.0" xlink:href="#mf0c55a9a47" y="562.463632494"/>
      </g>
     </g>
     <g id="line2d_48">
      <g>
       <use style="stroke:#000000;stroke-width:0.5;" x="648.0" xlink:href="#ma4f294b3af" y="562.463632494"/>
      </g>
     </g>
    </g>
    <g id="ytick_15">
     <g id="line2d_49">
      <g>
       <use style="stroke:#000000;stroke-width:0.5;" x="90.0" xlink:href="#mf0c55a9a47" y="551.333084473"/>
      </g>
     </g>
     <g id="line2d_50">
      <g>
       <use style="stroke:#000000;stroke-width:0.5;" x="648.0" xlink:href="#ma4f294b3af" y="551.333084473"/>
      </g>
     </g>
    </g>
    <g id="ytick_16">
     <g id="line2d_51">
      <g>
       <use style="stroke:#000000;stroke-width:0.5;" x="90.0" xlink:href="#mf0c55a9a47" y="542.699560693"/>
      </g>
     </g>
     <g id="line2d_52">
      <g>
       <use style="stroke:#000000;stroke-width:0.5;" x="648.0" xlink:href="#ma4f294b3af" y="542.699560693"/>
      </g>
     </g>
    </g>
    <g id="ytick_17">
     <g id="line2d_53">
      <g>
       <use style="stroke:#000000;stroke-width:0.5;" x="90.0" xlink:href="#mf0c55a9a47" y="535.645458135"/>
      </g>
     </g>
     <g id="line2d_54">
      <g>
       <use style="stroke:#000000;stroke-width:0.5;" x="648.0" xlink:href="#ma4f294b3af" y="535.645458135"/>
      </g>
     </g>
    </g>
    <g id="ytick_18">
     <g id="line2d_55">
      <g>
       <use style="stroke:#000000;stroke-width:0.5;" x="90.0" xlink:href="#mf0c55a9a47" y="529.681299404"/>
      </g>
     </g>
     <g id="line2d_56">
      <g>
       <use style="stroke:#000000;stroke-width:0.5;" x="648.0" xlink:href="#ma4f294b3af" y="529.681299404"/>
      </g>
     </g>
    </g>
    <g id="ytick_19">
     <g id="line2d_57">
      <g>
       <use style="stroke:#000000;stroke-width:0.5;" x="90.0" xlink:href="#mf0c55a9a47" y="524.514910114"/>
      </g>
     </g>
     <g id="line2d_58">
      <g>
       <use style="stroke:#000000;stroke-width:0.5;" x="648.0" xlink:href="#ma4f294b3af" y="524.514910114"/>
      </g>
     </g>
    </g>
    <g id="ytick_20">
     <g id="line2d_59">
      <g>
       <use style="stroke:#000000;stroke-width:0.5;" x="90.0" xlink:href="#mf0c55a9a47" y="519.957831798"/>
      </g>
     </g>
     <g id="line2d_60">
      <g>
       <use style="stroke:#000000;stroke-width:0.5;" x="648.0" xlink:href="#ma4f294b3af" y="519.957831798"/>
      </g>
     </g>
    </g>
    <g id="ytick_21">
     <g id="line2d_61">
      <g>
       <use style="stroke:#000000;stroke-width:0.5;" x="90.0" xlink:href="#mf0c55a9a47" y="489.063211976"/>
      </g>
     </g>
     <g id="line2d_62">
      <g>
       <use style="stroke:#000000;stroke-width:0.5;" x="648.0" xlink:href="#ma4f294b3af" y="489.063211976"/>
      </g>
     </g>
    </g>
    <g id="ytick_22">
     <g id="line2d_63">
      <g>
       <use style="stroke:#000000;stroke-width:0.5;" x="90.0" xlink:href="#mf0c55a9a47" y="473.375585639"/>
      </g>
     </g>
     <g id="line2d_64">
      <g>
       <use style="stroke:#000000;stroke-width:0.5;" x="648.0" xlink:href="#ma4f294b3af" y="473.375585639"/>
      </g>
     </g>
    </g>
    <g id="ytick_23">
     <g id="line2d_65">
      <g>
       <use style="stroke:#000000;stroke-width:0.5;" x="90.0" xlink:href="#mf0c55a9a47" y="462.245037618"/>
      </g>
     </g>
     <g id="line2d_66">
      <g>
       <use style="stroke:#000000;stroke-width:0.5;" x="648.0" xlink:href="#ma4f294b3af" y="462.245037618"/>
      </g>
     </g>
    </g>
    <g id="ytick_24">
     <g id="line2d_67">
      <g>
       <use style="stroke:#000000;stroke-width:0.5;" x="90.0" xlink:href="#mf0c55a9a47" y="453.611513838"/>
      </g>
     </g>
     <g id="line2d_68">
      <g>
       <use style="stroke:#000000;stroke-width:0.5;" x="648.0" xlink:href="#ma4f294b3af" y="453.611513838"/>
      </g>
     </g>
    </g>
    <g id="ytick_25">
     <g id="line2d_69">
      <g>
       <use style="stroke:#000000;stroke-width:0.5;" x="90.0" xlink:href="#mf0c55a9a47" y="446.55741128"/>
      </g>
     </g>
     <g id="line2d_70">
      <g>
       <use style="stroke:#000000;stroke-width:0.5;" x="648.0" xlink:href="#ma4f294b3af" y="446.55741128"/>
      </g>
     </g>
    </g>
    <g id="ytick_26">
     <g id="line2d_71">
      <g>
       <use style="stroke:#000000;stroke-width:0.5;" x="90.0" xlink:href="#mf0c55a9a47" y="440.593252549"/>
      </g>
     </g>
     <g id="line2d_72">
      <g>
       <use style="stroke:#000000;stroke-width:0.5;" x="648.0" xlink:href="#ma4f294b3af" y="440.593252549"/>
      </g>
     </g>
    </g>
    <g id="ytick_27">
     <g id="line2d_73">
      <g>
       <use style="stroke:#000000;stroke-width:0.5;" x="90.0" xlink:href="#mf0c55a9a47" y="435.426863259"/>
      </g>
     </g>
     <g id="line2d_74">
      <g>
       <use style="stroke:#000000;stroke-width:0.5;" x="648.0" xlink:href="#ma4f294b3af" y="435.426863259"/>
      </g>
     </g>
    </g>
    <g id="ytick_28">
     <g id="line2d_75">
      <g>
       <use style="stroke:#000000;stroke-width:0.5;" x="90.0" xlink:href="#mf0c55a9a47" y="430.869784943"/>
      </g>
     </g>
     <g id="line2d_76">
      <g>
       <use style="stroke:#000000;stroke-width:0.5;" x="648.0" xlink:href="#ma4f294b3af" y="430.869784943"/>
      </g>
     </g>
    </g>
    <g id="ytick_29">
     <g id="line2d_77">
      <g>
       <use style="stroke:#000000;stroke-width:0.5;" x="90.0" xlink:href="#mf0c55a9a47" y="399.975165121"/>
      </g>
     </g>
     <g id="line2d_78">
      <g>
       <use style="stroke:#000000;stroke-width:0.5;" x="648.0" xlink:href="#ma4f294b3af" y="399.975165121"/>
      </g>
     </g>
    </g>
    <g id="ytick_30">
     <g id="line2d_79">
      <g>
       <use style="stroke:#000000;stroke-width:0.5;" x="90.0" xlink:href="#mf0c55a9a47" y="384.287538783"/>
      </g>
     </g>
     <g id="line2d_80">
      <g>
       <use style="stroke:#000000;stroke-width:0.5;" x="648.0" xlink:href="#ma4f294b3af" y="384.287538783"/>
      </g>
     </g>
    </g>
    <g id="ytick_31">
     <g id="line2d_81">
      <g>
       <use style="stroke:#000000;stroke-width:0.5;" x="90.0" xlink:href="#mf0c55a9a47" y="373.156990762"/>
      </g>
     </g>
     <g id="line2d_82">
      <g>
       <use style="stroke:#000000;stroke-width:0.5;" x="648.0" xlink:href="#ma4f294b3af" y="373.156990762"/>
      </g>
     </g>
    </g>
    <g id="ytick_32">
     <g id="line2d_83">
      <g>
       <use style="stroke:#000000;stroke-width:0.5;" x="90.0" xlink:href="#mf0c55a9a47" y="364.523466983"/>
      </g>
     </g>
     <g id="line2d_84">
      <g>
       <use style="stroke:#000000;stroke-width:0.5;" x="648.0" xlink:href="#ma4f294b3af" y="364.523466983"/>
      </g>
     </g>
    </g>
    <g id="ytick_33">
     <g id="line2d_85">
      <g>
       <use style="stroke:#000000;stroke-width:0.5;" x="90.0" xlink:href="#mf0c55a9a47" y="357.469364425"/>
      </g>
     </g>
     <g id="line2d_86">
      <g>
       <use style="stroke:#000000;stroke-width:0.5;" x="648.0" xlink:href="#ma4f294b3af" y="357.469364425"/>
      </g>
     </g>
    </g>
    <g id="ytick_34">
     <g id="line2d_87">
      <g>
       <use style="stroke:#000000;stroke-width:0.5;" x="90.0" xlink:href="#mf0c55a9a47" y="351.505205693"/>
      </g>
     </g>
     <g id="line2d_88">
      <g>
       <use style="stroke:#000000;stroke-width:0.5;" x="648.0" xlink:href="#ma4f294b3af" y="351.505205693"/>
      </g>
     </g>
    </g>
    <g id="ytick_35">
     <g id="line2d_89">
      <g>
       <use style="stroke:#000000;stroke-width:0.5;" x="90.0" xlink:href="#mf0c55a9a47" y="346.338816404"/>
      </g>
     </g>
     <g id="line2d_90">
      <g>
       <use style="stroke:#000000;stroke-width:0.5;" x="648.0" xlink:href="#ma4f294b3af" y="346.338816404"/>
      </g>
     </g>
    </g>
    <g id="ytick_36">
     <g id="line2d_91">
      <g>
       <use style="stroke:#000000;stroke-width:0.5;" x="90.0" xlink:href="#mf0c55a9a47" y="341.781738087"/>
      </g>
     </g>
     <g id="line2d_92">
      <g>
       <use style="stroke:#000000;stroke-width:0.5;" x="648.0" xlink:href="#ma4f294b3af" y="341.781738087"/>
      </g>
     </g>
    </g>
    <g id="ytick_37">
     <g id="line2d_93">
      <g>
       <use style="stroke:#000000;stroke-width:0.5;" x="90.0" xlink:href="#mf0c55a9a47" y="310.887118266"/>
      </g>
     </g>
     <g id="line2d_94">
      <g>
       <use style="stroke:#000000;stroke-width:0.5;" x="648.0" xlink:href="#ma4f294b3af" y="310.887118266"/>
      </g>
     </g>
    </g>
    <g id="ytick_38">
     <g id="line2d_95">
      <g>
       <use style="stroke:#000000;stroke-width:0.5;" x="90.0" xlink:href="#mf0c55a9a47" y="295.199491928"/>
      </g>
     </g>
     <g id="line2d_96">
      <g>
       <use style="stroke:#000000;stroke-width:0.5;" x="648.0" xlink:href="#ma4f294b3af" y="295.199491928"/>
      </g>
     </g>
    </g>
    <g id="ytick_39">
     <g id="line2d_97">
      <g>
       <use style="stroke:#000000;stroke-width:0.5;" x="90.0" xlink:href="#mf0c55a9a47" y="284.068943907"/>
      </g>
     </g>
     <g id="line2d_98">
      <g>
       <use style="stroke:#000000;stroke-width:0.5;" x="648.0" xlink:href="#ma4f294b3af" y="284.068943907"/>
      </g>
     </g>
    </g>
    <g id="ytick_40">
     <g id="line2d_99">
      <g>
       <use style="stroke:#000000;stroke-width:0.5;" x="90.0" xlink:href="#mf0c55a9a47" y="275.435420127"/>
      </g>
     </g>
     <g id="line2d_100">
      <g>
       <use style="stroke:#000000;stroke-width:0.5;" x="648.0" xlink:href="#ma4f294b3af" y="275.435420127"/>
      </g>
     </g>
    </g>
    <g id="ytick_41">
     <g id="line2d_101">
      <g>
       <use style="stroke:#000000;stroke-width:0.5;" x="90.0" xlink:href="#mf0c55a9a47" y="268.381317569"/>
      </g>
     </g>
     <g id="line2d_102">
      <g>
       <use style="stroke:#000000;stroke-width:0.5;" x="648.0" xlink:href="#ma4f294b3af" y="268.381317569"/>
      </g>
     </g>
    </g>
    <g id="ytick_42">
     <g id="line2d_103">
      <g>
       <use style="stroke:#000000;stroke-width:0.5;" x="90.0" xlink:href="#mf0c55a9a47" y="262.417158838"/>
      </g>
     </g>
     <g id="line2d_104">
      <g>
       <use style="stroke:#000000;stroke-width:0.5;" x="648.0" xlink:href="#ma4f294b3af" y="262.417158838"/>
      </g>
     </g>
    </g>
    <g id="ytick_43">
     <g id="line2d_105">
      <g>
       <use style="stroke:#000000;stroke-width:0.5;" x="90.0" xlink:href="#mf0c55a9a47" y="257.250769548"/>
      </g>
     </g>
     <g id="line2d_106">
      <g>
       <use style="stroke:#000000;stroke-width:0.5;" x="648.0" xlink:href="#ma4f294b3af" y="257.250769548"/>
      </g>
     </g>
    </g>
    <g id="ytick_44">
     <g id="line2d_107">
      <g>
       <use style="stroke:#000000;stroke-width:0.5;" x="90.0" xlink:href="#mf0c55a9a47" y="252.693691232"/>
      </g>
     </g>
     <g id="line2d_108">
      <g>
       <use style="stroke:#000000;stroke-width:0.5;" x="648.0" xlink:href="#ma4f294b3af" y="252.693691232"/>
      </g>
     </g>
    </g>
    <g id="ytick_45">
     <g id="line2d_109">
      <g>
       <use style="stroke:#000000;stroke-width:0.5;" x="90.0" xlink:href="#mf0c55a9a47" y="221.79907141"/>
      </g>
     </g>
     <g id="line2d_110">
      <g>
       <use style="stroke:#000000;stroke-width:0.5;" x="648.0" xlink:href="#ma4f294b3af" y="221.79907141"/>
      </g>
     </g>
    </g>
    <g id="ytick_46">
     <g id="line2d_111">
      <g>
       <use style="stroke:#000000;stroke-width:0.5;" x="90.0" xlink:href="#mf0c55a9a47" y="206.111445073"/>
      </g>
     </g>
     <g id="line2d_112">
      <g>
       <use style="stroke:#000000;stroke-width:0.5;" x="648.0" xlink:href="#ma4f294b3af" y="206.111445073"/>
      </g>
     </g>
    </g>
    <g id="ytick_47">
     <g id="line2d_113">
      <g>
       <use style="stroke:#000000;stroke-width:0.5;" x="90.0" xlink:href="#mf0c55a9a47" y="194.980897052"/>
      </g>
     </g>
     <g id="line2d_114">
      <g>
       <use style="stroke:#000000;stroke-width:0.5;" x="648.0" xlink:href="#ma4f294b3af" y="194.980897052"/>
      </g>
     </g>
    </g>
    <g id="ytick_48">
     <g id="line2d_115">
      <g>
       <use style="stroke:#000000;stroke-width:0.5;" x="90.0" xlink:href="#mf0c55a9a47" y="186.347373272"/>
      </g>
     </g>
     <g id="line2d_116">
      <g>
       <use style="stroke:#000000;stroke-width:0.5;" x="648.0" xlink:href="#ma4f294b3af" y="186.347373272"/>
      </g>
     </g>
    </g>
    <g id="ytick_49">
     <g id="line2d_117">
      <g>
       <use style="stroke:#000000;stroke-width:0.5;" x="90.0" xlink:href="#mf0c55a9a47" y="179.293270714"/>
      </g>
     </g>
     <g id="line2d_118">
      <g>
       <use style="stroke:#000000;stroke-width:0.5;" x="648.0" xlink:href="#ma4f294b3af" y="179.293270714"/>
      </g>
     </g>
    </g>
    <g id="ytick_50">
     <g id="line2d_119">
      <g>
       <use style="stroke:#000000;stroke-width:0.5;" x="90.0" xlink:href="#mf0c55a9a47" y="173.329111983"/>
      </g>
     </g>
     <g id="line2d_120">
      <g>
       <use style="stroke:#000000;stroke-width:0.5;" x="648.0" xlink:href="#ma4f294b3af" y="173.329111983"/>
      </g>
     </g>
    </g>
    <g id="ytick_51">
     <g id="line2d_121">
      <g>
       <use style="stroke:#000000;stroke-width:0.5;" x="90.0" xlink:href="#mf0c55a9a47" y="168.162722693"/>
      </g>
     </g>
     <g id="line2d_122">
      <g>
       <use style="stroke:#000000;stroke-width:0.5;" x="648.0" xlink:href="#ma4f294b3af" y="168.162722693"/>
      </g>
     </g>
    </g>
    <g id="ytick_52">
     <g id="line2d_123">
      <g>
       <use style="stroke:#000000;stroke-width:0.5;" x="90.0" xlink:href="#mf0c55a9a47" y="163.605644376"/>
      </g>
     </g>
     <g id="line2d_124">
      <g>
       <use style="stroke:#000000;stroke-width:0.5;" x="648.0" xlink:href="#ma4f294b3af" y="163.605644376"/>
      </g>
     </g>
    </g>
    <g id="ytick_53">
     <g id="line2d_125">
      <g>
       <use style="stroke:#000000;stroke-width:0.5;" x="90.0" xlink:href="#mf0c55a9a47" y="132.711024555"/>
      </g>
     </g>
     <g id="line2d_126">
      <g>
       <use style="stroke:#000000;stroke-width:0.5;" x="648.0" xlink:href="#ma4f294b3af" y="132.711024555"/>
      </g>
     </g>
    </g>
    <g id="ytick_54">
     <g id="line2d_127">
      <g>
       <use style="stroke:#000000;stroke-width:0.5;" x="90.0" xlink:href="#mf0c55a9a47" y="117.023398217"/>
      </g>
     </g>
     <g id="line2d_128">
      <g>
       <use style="stroke:#000000;stroke-width:0.5;" x="648.0" xlink:href="#ma4f294b3af" y="117.023398217"/>
      </g>
     </g>
    </g>
    <g id="ytick_55">
     <g id="line2d_129">
      <g>
       <use style="stroke:#000000;stroke-width:0.5;" x="90.0" xlink:href="#mf0c55a9a47" y="105.892850196"/>
      </g>
     </g>
     <g id="line2d_130">
      <g>
       <use style="stroke:#000000;stroke-width:0.5;" x="648.0" xlink:href="#ma4f294b3af" y="105.892850196"/>
      </g>
     </g>
    </g>
    <g id="ytick_56">
     <g id="line2d_131">
      <g>
       <use style="stroke:#000000;stroke-width:0.5;" x="90.0" xlink:href="#mf0c55a9a47" y="97.2593264167"/>
      </g>
     </g>
     <g id="line2d_132">
      <g>
       <use style="stroke:#000000;stroke-width:0.5;" x="648.0" xlink:href="#ma4f294b3af" y="97.2593264167"/>
      </g>
     </g>
    </g>
    <g id="ytick_57">
     <g id="line2d_133">
      <g>
       <use style="stroke:#000000;stroke-width:0.5;" x="90.0" xlink:href="#mf0c55a9a47" y="90.2052238587"/>
      </g>
     </g>
     <g id="line2d_134">
      <g>
       <use style="stroke:#000000;stroke-width:0.5;" x="648.0" xlink:href="#ma4f294b3af" y="90.2052238587"/>
      </g>
     </g>
    </g>
    <g id="ytick_58">
     <g id="line2d_135">
      <g>
       <use style="stroke:#000000;stroke-width:0.5;" x="90.0" xlink:href="#mf0c55a9a47" y="84.2410651273"/>
      </g>
     </g>
     <g id="line2d_136">
      <g>
       <use style="stroke:#000000;stroke-width:0.5;" x="648.0" xlink:href="#ma4f294b3af" y="84.2410651273"/>
      </g>
     </g>
    </g>
    <g id="ytick_59">
     <g id="line2d_137">
      <g>
       <use style="stroke:#000000;stroke-width:0.5;" x="90.0" xlink:href="#mf0c55a9a47" y="79.0746758377"/>
      </g>
     </g>
     <g id="line2d_138">
      <g>
       <use style="stroke:#000000;stroke-width:0.5;" x="648.0" xlink:href="#ma4f294b3af" y="79.0746758377"/>
      </g>
     </g>
    </g>
    <g id="ytick_60">
     <g id="line2d_139">
      <g>
       <use style="stroke:#000000;stroke-width:0.5;" x="90.0" xlink:href="#mf0c55a9a47" y="74.5175975211"/>
      </g>
     </g>
     <g id="line2d_140">
      <g>
       <use style="stroke:#000000;stroke-width:0.5;" x="648.0" xlink:href="#ma4f294b3af" y="74.5175975211"/>
      </g>
     </g>
    </g>
    <g id="text_17">
     <!-- Transmission -->
     <defs>
      <path d="
M30.6094 48.3906
Q23.3906 48.3906 19.1875 42.75
Q14.9844 37.1094 14.9844 27.2969
Q14.9844 17.4844 19.1562 11.8438
Q23.3438 6.20312 30.6094 6.20312
Q37.7969 6.20312 41.9844 11.8594
Q46.1875 17.5312 46.1875 27.2969
Q46.1875 37.0156 41.9844 42.7031
Q37.7969 48.3906 30.6094 48.3906
M30.6094 56
Q42.3281 56 49.0156 48.375
Q55.7188 40.7656 55.7188 27.2969
Q55.7188 13.875 49.0156 6.21875
Q42.3281 -1.42188 30.6094 -1.42188
Q18.8438 -1.42188 12.1719 6.21875
Q5.51562 13.875 5.51562 27.2969
Q5.51562 40.7656 12.1719 48.375
Q18.8438 56 30.6094 56" id="DejaVuSans-6f"/>
      <path d="
M52 44.1875
Q55.375 50.25 60.0625 53.125
Q64.75 56 71.0938 56
Q79.6406 56 84.2812 50.0156
Q88.9219 44.0469 88.9219 33.0156
L88.9219 0
L79.8906 0
L79.8906 32.7188
Q79.8906 40.5781 77.0938 44.375
Q74.3125 48.1875 68.6094 48.1875
Q61.625 48.1875 57.5625 43.5469
Q53.5156 38.9219 53.5156 30.9062
L53.5156 0
L44.4844 0
L44.4844 32.7188
Q44.4844 40.625 41.7031 44.4062
Q38.9219 48.1875 33.1094 48.1875
Q26.2188 48.1875 22.1562 43.5312
Q18.1094 38.875 18.1094 30.9062
L18.1094 0
L9.07812 0
L9.07812 54.6875
L18.1094 54.6875
L18.1094 46.1875
Q21.1875 51.2188 25.4844 53.6094
Q29.7812 56 35.6875 56
Q41.6562 56 45.8281 52.9688
Q50 49.9531 52 44.1875" id="DejaVuSans-6d"/>
      <path d="
M9.42188 54.6875
L18.4062 54.6875
L18.4062 0
L9.42188 0
z

M9.42188 75.9844
L18.4062 75.9844
L18.4062 64.5938
L9.42188 64.5938
z
" id="DejaVuSans-69"/>
      <path d="
M-0.296875 72.9062
L61.375 72.9062
L61.375 64.5938
L35.5 64.5938
L35.5 0
L25.5938 0
L25.5938 64.5938
L-0.296875 64.5938
z
" id="DejaVuSans-54"/>
      <path d="
M44.2812 53.0781
L44.2812 44.5781
Q40.4844 46.5312 36.375 47.5
Q32.2812 48.4844 27.875 48.4844
Q21.1875 48.4844 17.8438 46.4375
Q14.5 44.3906 14.5 40.2812
Q14.5 37.1562 16.8906 35.375
Q19.2812 33.5938 26.5156 31.9844
L29.5938 31.2969
Q39.1562 29.25 43.1875 25.5156
Q47.2188 21.7812 47.2188 15.0938
Q47.2188 7.46875 41.1875 3.01562
Q35.1562 -1.42188 24.6094 -1.42188
Q20.2188 -1.42188 15.4531 -0.5625
Q10.6875 0.296875 5.42188 2
L5.42188 11.2812
Q10.4062 8.6875 15.2344 7.39062
Q20.0625 6.10938 24.8125 6.10938
Q31.1562 6.10938 34.5625 8.28125
Q37.9844 10.4531 37.9844 14.4062
Q37.9844 18.0625 35.5156 20.0156
Q33.0625 21.9688 24.7031 23.7812
L21.5781 24.5156
Q13.2344 26.2656 9.51562 29.9062
Q5.8125 33.5469 5.8125 39.8906
Q5.8125 47.6094 11.2812 51.7969
Q16.75 56 26.8125 56
Q31.7812 56 36.1719 55.2656
Q40.5781 54.5469 44.2812 53.0781" id="DejaVuSans-73"/>
      <path d="
M34.2812 27.4844
Q23.3906 27.4844 19.1875 25
Q14.9844 22.5156 14.9844 16.5
Q14.9844 11.7188 18.1406 8.90625
Q21.2969 6.10938 26.7031 6.10938
Q34.1875 6.10938 38.7031 11.4062
Q43.2188 16.7031 43.2188 25.4844
L43.2188 27.4844
z

M52.2031 31.2031
L52.2031 0
L43.2188 0
L43.2188 8.29688
Q40.1406 3.32812 35.5469 0.953125
Q30.9531 -1.42188 24.3125 -1.42188
Q15.9219 -1.42188 10.9531 3.29688
Q6 8.01562 6 15.9219
Q6 25.1406 12.1719 29.8281
Q18.3594 34.5156 30.6094 34.5156
L43.2188 34.5156
L43.2188 35.4062
Q43.2188 41.6094 39.1406 45
Q35.0625 48.3906 27.6875 48.3906
Q23 48.3906 18.5469 47.2656
Q14.1094 46.1406 10.0156 43.8906
L10.0156 52.2031
Q14.9375 54.1094 19.5781 55.0469
Q24.2188 56 28.6094 56
Q40.4844 56 46.3438 49.8438
Q52.2031 43.7031 52.2031 31.2031" id="DejaVuSans-61"/>
     </defs>
     <g transform="translate(24.1609375 455.6578125)rotate(-90.0)scale(0.3 -0.3)">
      <use xlink:href="#DejaVuSans-54"/>
      <use x="46.333984375" xlink:href="#DejaVuSans-72"/>
      <use x="87.447265625" xlink:href="#DejaVuSans-61"/>
      <use x="148.7265625" xlink:href="#DejaVuSans-6e"/>
      <use x="212.10546875" xlink:href="#DejaVuSans-73"/>
      <use x="264.205078125" xlink:href="#DejaVuSans-6d"/>
      <use x="361.6171875" xlink:href="#DejaVuSans-69"/>
      <use x="389.400390625" xlink:href="#DejaVuSans-73"/>
      <use x="441.5" xlink:href="#DejaVuSans-73"/>
      <use x="493.599609375" xlink:href="#DejaVuSans-69"/>
      <use x="521.3828125" xlink:href="#DejaVuSans-6f"/>
      <use x="582.564453125" xlink:href="#DejaVuSans-6e"/>
     </g>
    </g>
   </g>
   <g id="text_18">
    <!-- Pts [Transmission, $\lambda=1.500], $\alpha=0.740$, $\tau=0.024$, $\Gamma=0.010$, $\epsilon_0=-0.250$, $V=1.000$, $\beta=7.500$, $U=0.000$,max=8.004e-05 -->
    <defs>
     <path d="
M54.8906 54.6875
L35.1094 28.0781
L55.9062 0
L45.3125 0
L29.3906 21.4844
L13.4844 0
L2.875 0
L24.125 28.6094
L4.6875 54.6875
L15.2812 54.6875
L29.7812 35.2031
L44.2812 54.6875
z
" id="DejaVuSans-78"/>
     <path d="
M11.7188 12.4062
L22.0156 12.4062
L22.0156 4
L14.0156 -11.625
L7.71875 -11.625
L11.7188 4
z
" id="DejaVuSans-2c"/>
     <path d="
M28.6094 0
L0.78125 72.9062
L11.0781 72.9062
L34.1875 11.5312
L57.3281 72.9062
L67.5781 72.9062
L39.7969 0
z
" id="DejaVuSans-56"/>
     <path d="
M10.5938 45.4062
L73.1875 45.4062
L73.1875 37.2031
L10.5938 37.2031
z

M10.5938 25.4844
L73.1875 25.4844
L73.1875 17.1875
L10.5938 17.1875
z
" id="DejaVuSans-3d"/>
     <path d="
M8.29688 72.9062
L33.6875 -9.28125
L25.3906 -9.28125
L0 72.9062
z
" id="DejaVuSans-5c"/>
     <path d="
M8.59375 75.9844
L29.2969 75.9844
L29.2969 69
L17.5781 69
L17.5781 -6.20312
L29.2969 -6.20312
L29.2969 -13.1875
L8.59375 -13.1875
z
" id="DejaVuSans-5b"/>
     <path d="
M50.9844 -16.6094
L50.9844 -23.5781
L-0.984375 -23.5781
L-0.984375 -16.6094
z
" id="DejaVuSans-5f"/>
     <path d="
M9.42188 75.9844
L18.4062 75.9844
L18.4062 0
L9.42188 0
z
" id="DejaVuSans-6c"/>
     <path d="
M30.4219 75.9844
L30.4219 -13.1875
L9.71875 -13.1875
L9.71875 -6.20312
L21.3906 -6.20312
L21.3906 69
L9.71875 69
L9.71875 75.9844
z
" id="DejaVuSans-5d"/>
     <path d="
M59.5156 10.4062
L59.5156 29.9844
L43.4062 29.9844
L43.4062 38.0938
L69.2812 38.0938
L69.2812 6.78125
Q63.5781 2.73438 56.6875 0.65625
Q49.8125 -1.42188 42 -1.42188
Q24.9062 -1.42188 15.25 8.5625
Q5.60938 18.5625 5.60938 36.375
Q5.60938 54.25 15.25 64.2344
Q24.9062 74.2188 42 74.2188
Q49.125 74.2188 55.5469 72.4531
Q61.9688 70.7031 67.3906 67.2812
L67.3906 56.7812
Q61.9219 61.4219 55.7656 63.7656
Q49.6094 66.1094 42.8281 66.1094
Q29.4375 66.1094 22.7188 58.6406
Q16.0156 51.1719 16.0156 36.375
Q16.0156 21.625 22.7188 14.1562
Q29.4375 6.6875 42.8281 6.6875
Q48.0469 6.6875 52.1406 7.59375
Q56.25 8.5 59.5156 10.4062" id="DejaVuSans-47"/>
     <path d="
M37.7969 64.3125
L12.8906 25.3906
L37.7969 25.3906
z

M35.2031 72.9062
L47.6094 72.9062
L47.6094 25.3906
L58.0156 25.3906
L58.0156 17.1875
L47.6094 17.1875
L47.6094 0
L37.7969 0
L37.7969 17.1875
L4.89062 17.1875
L4.89062 26.7031
z
" id="DejaVuSans-34"/>
     <path d="
M33.7969 -14.7031
L28.9062 -14.7031
L28.8594 0
Q23.7344 0.09375 18.6094 1.1875
Q13.4844 2.29688 8.29688 4.5
L8.29688 13.2812
Q13.2812 10.1562 18.375 8.5625
Q23.4844 6.98438 28.9062 6.9375
L28.9062 29.2031
Q18.1094 30.9531 13.2031 35.1562
Q8.29688 39.3594 8.29688 46.6875
Q8.29688 54.6406 13.625 59.2188
Q18.9531 63.8125 28.9062 64.5
L28.9062 75.9844
L33.7969 75.9844
L33.7969 64.6562
Q38.3281 64.4531 42.5781 63.6875
Q46.8281 62.9375 50.875 61.625
L50.875 53.0781
Q46.8281 55.125 42.5469 56.25
Q38.2812 57.375 33.7969 57.5625
L33.7969 36.7188
Q44.875 35.0156 50.0938 30.6094
Q55.3281 26.2188 55.3281 18.6094
Q55.3281 10.3594 49.7812 5.59375
Q44.2344 0.828125 33.7969 0.09375
z

M28.9062 37.5938
L28.9062 57.625
Q23.25 56.9844 20.2656 54.3906
Q17.2812 51.8125 17.2812 47.5156
Q17.2812 43.3125 20.0312 40.9688
Q22.7969 38.625 28.9062 37.5938
M33.7969 28.2188
L33.7969 7.07812
Q39.9844 7.90625 43.1406 10.5938
Q46.2969 13.2812 46.2969 17.6719
Q46.2969 21.9688 43.2812 24.5
Q40.2812 27.0469 33.7969 28.2188" id="DejaVuSans-24"/>
     <path d="
M8.5 21.5781
L8.5 54.6875
L17.4844 54.6875
L17.4844 21.9219
Q17.4844 14.1562 20.5 10.2656
Q23.5312 6.39062 29.5938 6.39062
Q36.8594 6.39062 41.0781 11.0312
Q45.3125 15.6719 45.3125 23.6875
L45.3125 54.6875
L54.2969 54.6875
L54.2969 0
L45.3125 0
L45.3125 8.40625
Q42.0469 3.42188 37.7188 1
Q33.4062 -1.42188 27.6875 -1.42188
Q18.2656 -1.42188 13.375 4.4375
Q8.5 10.2969 8.5 21.5781
M31.1094 56
z
" id="DejaVuSans-75"/>
     <path d="
M18.3125 70.2188
L18.3125 54.6875
L36.8125 54.6875
L36.8125 47.7031
L18.3125 47.7031
L18.3125 18.0156
Q18.3125 11.3281 20.1406 9.42188
Q21.9688 7.51562 27.5938 7.51562
L36.8125 7.51562
L36.8125 0
L27.5938 0
Q17.1875 0 13.2344 3.875
Q9.28125 7.76562 9.28125 18.0156
L9.28125 47.7031
L2.6875 47.7031
L2.6875 54.6875
L9.28125 54.6875
L9.28125 70.2188
z
" id="DejaVuSans-74"/>
     <path d="
M45.4062 46.3906
L45.4062 75.9844
L54.3906 75.9844
L54.3906 0
L45.4062 0
L45.4062 8.20312
Q42.5781 3.32812 38.25 0.953125
Q33.9375 -1.42188 27.875 -1.42188
Q17.9688 -1.42188 11.7344 6.48438
Q5.51562 14.4062 5.51562 27.2969
Q5.51562 40.1875 11.7344 48.0938
Q17.9688 56 27.875 56
Q33.9375 56 38.25 53.625
Q42.5781 51.2656 45.4062 46.3906
M14.7969 27.2969
Q14.7969 17.3906 18.875 11.75
Q22.9531 6.10938 30.0781 6.10938
Q37.2031 6.10938 41.2969 11.75
Q45.4062 17.3906 45.4062 27.2969
Q45.4062 37.2031 41.2969 42.8438
Q37.2031 48.4844 30.0781 48.4844
Q22.9531 48.4844 18.875 42.8438
Q14.7969 37.2031 14.7969 27.2969" id="DejaVuSans-64"/>
     <path d="
M19.6719 64.7969
L19.6719 37.4062
L32.0781 37.4062
Q38.9688 37.4062 42.7188 40.9688
Q46.4844 44.5312 46.4844 51.125
Q46.4844 57.6719 42.7188 61.2344
Q38.9688 64.7969 32.0781 64.7969
z

M9.8125 72.9062
L32.0781 72.9062
Q44.3438 72.9062 50.6094 67.3594
Q56.8906 61.8125 56.8906 51.125
Q56.8906 40.3281 50.6094 34.8125
Q44.3438 29.2969 32.0781 29.2969
L19.6719 29.2969
L19.6719 0
L9.8125 0
z
" id="DejaVuSans-50"/>
     <path d="
M48.6875 27.2969
Q48.6875 37.2031 44.6094 42.8438
Q40.5312 48.4844 33.4062 48.4844
Q26.2656 48.4844 22.1875 42.8438
Q18.1094 37.2031 18.1094 27.2969
Q18.1094 17.3906 22.1875 11.75
Q26.2656 6.10938 33.4062 6.10938
Q40.5312 6.10938 44.6094 11.75
Q48.6875 17.3906 48.6875 27.2969
M18.1094 46.3906
Q20.9531 51.2656 25.2656 53.625
Q29.5938 56 35.5938 56
Q45.5625 56 51.7812 48.0938
Q58.0156 40.1875 58.0156 27.2969
Q58.0156 14.4062 51.7812 6.48438
Q45.5625 -1.42188 35.5938 -1.42188
Q29.5938 -1.42188 25.2656 0.953125
Q20.9531 3.32812 18.1094 8.20312
L18.1094 0
L9.07812 0
L9.07812 75.9844
L18.1094 75.9844
z
" id="DejaVuSans-62"/>
     <path d="
M18.1094 8.20312
L18.1094 -20.7969
L9.07812 -20.7969
L9.07812 54.6875
L18.1094 54.6875
L18.1094 46.3906
Q20.9531 51.2656 25.2656 53.625
Q29.5938 56 35.5938 56
Q45.5625 56 51.7812 48.0938
Q58.0156 40.1875 58.0156 27.2969
Q58.0156 14.4062 51.7812 6.48438
Q45.5625 -1.42188 35.5938 -1.42188
Q29.5938 -1.42188 25.2656 0.953125
Q20.9531 3.32812 18.1094 8.20312
M48.6875 27.2969
Q48.6875 37.2031 44.6094 42.8438
Q40.5312 48.4844 33.4062 48.4844
Q26.2656 48.4844 22.1875 42.8438
Q18.1094 37.2031 18.1094 27.2969
Q18.1094 17.3906 22.1875 11.75
Q26.2656 6.10938 33.4062 6.10938
Q40.5312 6.10938 44.6094 11.75
Q48.6875 17.3906 48.6875 27.2969" id="DejaVuSans-70"/>
     <path d="
M8.6875 72.9062
L18.6094 72.9062
L18.6094 28.6094
Q18.6094 16.8906 22.8438 11.7344
Q27.0938 6.59375 36.625 6.59375
Q46.0938 6.59375 50.3438 11.7344
Q54.5938 16.8906 54.5938 28.6094
L54.5938 72.9062
L64.5 72.9062
L64.5 27.3906
Q64.5 13.1406 57.4375 5.85938
Q50.3906 -1.42188 36.625 -1.42188
Q22.7969 -1.42188 15.7344 5.85938
Q8.6875 13.1406 8.6875 27.3906
z
" id="DejaVuSans-55"/>
     <path d="
M54.8906 33.0156
L54.8906 0
L45.9062 0
L45.9062 32.7188
Q45.9062 40.4844 42.875 44.3281
Q39.8438 48.1875 33.7969 48.1875
Q26.5156 48.1875 22.3125 43.5469
Q18.1094 38.9219 18.1094 30.9062
L18.1094 0
L9.07812 0
L9.07812 75.9844
L18.1094 75.9844
L18.1094 46.1875
Q21.3438 51.125 25.7031 53.5625
Q30.0781 56 35.7969 56
Q45.2188 56 50.0469 50.1719
Q54.8906 44.3438 54.8906 33.0156" id="DejaVuSans-68"/>
    </defs>
    <g transform="translate(-265.01015625 67.0)scale(0.15 -0.15)">
     <use xlink:href="#DejaVuSans-50"/>
     <use x="60.302734375" xlink:href="#DejaVuSans-74"/>
     <use x="99.51171875" xlink:href="#DejaVuSans-73"/>
     <use x="151.611328125" xlink:href="#DejaVuSans-20"/>
     <use x="183.3984375" xlink:href="#DejaVuSans-5b"/>
     <use x="222.412109375" xlink:href="#DejaVuSans-54"/>
     <use x="268.74609375" xlink:href="#DejaVuSans-72"/>
     <use x="309.859375" xlink:href="#DejaVuSans-61"/>
     <use x="371.138671875" xlink:href="#DejaVuSans-6e"/>
     <use x="434.517578125" xlink:href="#DejaVuSans-73"/>
     <use x="486.6171875" xlink:href="#DejaVuSans-6d"/>
     <use x="584.029296875" xlink:href="#DejaVuSans-69"/>
     <use x="611.8125" xlink:href="#DejaVuSans-73"/>
     <use x="663.912109375" xlink:href="#DejaVuSans-73"/>
     <use x="716.01171875" xlink:href="#DejaVuSans-69"/>
     <use x="743.794921875" xlink:href="#DejaVuSans-6f"/>
     <use x="804.9765625" xlink:href="#DejaVuSans-6e"/>
     <use x="868.35546875" xlink:href="#DejaVuSans-2c"/>
     <use x="900.142578125" xlink:href="#DejaVuSans-20"/>
     <use x="931.9296875" xlink:href="#DejaVuSans-24"/>
     <use x="995.552734375" xlink:href="#DejaVuSans-5c"/>
     <use x="1029.24414062" xlink:href="#DejaVuSans-6c"/>
     <use x="1057.02734375" xlink:href="#DejaVuSans-61"/>
     <use x="1118.30664062" xlink:href="#DejaVuSans-6d"/>
     <use x="1215.71875" xlink:href="#DejaVuSans-62"/>
     <use x="1279.1953125" xlink:href="#DejaVuSans-64"/>
     <use x="1342.671875" xlink:href="#DejaVuSans-61"/>
     <use x="1403.95117188" xlink:href="#DejaVuSans-3d"/>
     <use x="1487.74023438" xlink:href="#DejaVuSans-31"/>
     <use x="1551.36328125" xlink:href="#DejaVuSans-2e"/>
     <use x="1583.15039062" xlink:href="#DejaVuSans-35"/>
     <use x="1646.7734375" xlink:href="#DejaVuSans-30"/>
     <use x="1710.39648438" xlink:href="#DejaVuSans-30"/>
     <use x="1774.01953125" xlink:href="#DejaVuSans-5d"/>
     <use x="1813.03320312" xlink:href="#DejaVuSans-2c"/>
     <use x="1844.8203125" xlink:href="#DejaVuSans-20"/>
     <use x="1876.60742188" xlink:href="#DejaVuSans-24"/>
     <use x="1940.23046875" xlink:href="#DejaVuSans-5c"/>
     <use x="1973.921875" xlink:href="#DejaVuSans-61"/>
     <use x="2035.20117188" xlink:href="#DejaVuSans-6c"/>
     <use x="2062.984375" xlink:href="#DejaVuSans-70"/>
     <use x="2126.4609375" xlink:href="#DejaVuSans-68"/>
     <use x="2189.83984375" xlink:href="#DejaVuSans-61"/>
     <use x="2251.11914062" xlink:href="#DejaVuSans-3d"/>
     <use x="2334.90820312" xlink:href="#DejaVuSans-30"/>
     <use x="2398.53125" xlink:href="#DejaVuSans-2e"/>
     <use x="2430.31835938" xlink:href="#DejaVuSans-37"/>
     <use x="2493.94140625" xlink:href="#DejaVuSans-34"/>
     <use x="2557.56445312" xlink:href="#DejaVuSans-30"/>
     <use x="2621.1875" xlink:href="#DejaVuSans-24"/>
     <use x="2684.81054688" xlink:href="#DejaVuSans-2c"/>
     <use x="2716.59765625" xlink:href="#DejaVuSans-20"/>
     <use x="2748.38476562" xlink:href="#DejaVuSans-24"/>
     <use x="2812.0078125" xlink:href="#DejaVuSans-5c"/>
     <use x="2845.69921875" xlink:href="#DejaVuSans-74"/>
     <use x="2884.90820312" xlink:href="#DejaVuSans-61"/>
     <use x="2946.1875" xlink:href="#DejaVuSans-75"/>
     <use x="3009.56640625" xlink:href="#DejaVuSans-3d"/>
     <use x="3093.35546875" xlink:href="#DejaVuSans-30"/>
     <use x="3156.97851562" xlink:href="#DejaVuSans-2e"/>
     <use x="3188.765625" xlink:href="#DejaVuSans-30"/>
     <use x="3252.38867188" xlink:href="#DejaVuSans-32"/>
     <use x="3316.01171875" xlink:href="#DejaVuSans-34"/>
     <use x="3379.63476562" xlink:href="#DejaVuSans-24"/>
     <use x="3443.2578125" xlink:href="#DejaVuSans-2c"/>
     <use x="3475.04492188" xlink:href="#DejaVuSans-20"/>
     <use x="3506.83203125" xlink:href="#DejaVuSans-24"/>
     <use x="3570.45507812" xlink:href="#DejaVuSans-5c"/>
     <use x="3604.14648438" xlink:href="#DejaVuSans-47"/>
     <use x="3681.63671875" xlink:href="#DejaVuSans-61"/>
     <use x="3742.91601562" xlink:href="#DejaVuSans-6d"/>
     <use x="3840.328125" xlink:href="#DejaVuSans-6d"/>
     <use x="3937.74023438" xlink:href="#DejaVuSans-61"/>
     <use x="3999.01953125" xlink:href="#DejaVuSans-3d"/>
     <use x="4082.80859375" xlink:href="#DejaVuSans-30"/>
     <use x="4146.43164062" xlink:href="#DejaVuSans-2e"/>
     <use x="4178.21875" xlink:href="#DejaVuSans-30"/>
     <use x="4241.84179688" xlink:href="#DejaVuSans-31"/>
     <use x="4305.46484375" xlink:href="#DejaVuSans-30"/>
     <use x="4369.08789062" xlink:href="#DejaVuSans-24"/>
     <use x="4432.7109375" xlink:href="#DejaVuSans-2c"/>
     <use x="4464.49804688" xlink:href="#DejaVuSans-20"/>
     <use x="4496.28515625" xlink:href="#DejaVuSans-24"/>
     <use x="4559.90820312" xlink:href="#DejaVuSans-5c"/>
     <use x="4593.59960938" xlink:href="#DejaVuSans-65"/>
     <use x="4655.12304688" xlink:href="#DejaVuSans-70"/>
     <use x="4718.59960938" xlink:href="#DejaVuSans-73"/>
     <use x="4770.69921875" xlink:href="#DejaVuSans-69"/>
     <use x="4798.48242188" xlink:href="#DejaVuSans-6c"/>
     <use x="4826.265625" xlink:href="#DejaVuSans-6f"/>
     <use x="4887.44726562" xlink:href="#DejaVuSans-6e"/>
     <use x="4950.82617188" xlink:href="#DejaVuSans-5f"/>
     <use x="5000.82617188" xlink:href="#DejaVuSans-30"/>
     <use x="5064.44921875" xlink:href="#DejaVuSans-3d"/>
     <use x="5148.23828125" xlink:href="#DejaVuSans-2d"/>
     <use x="5184.32226562" xlink:href="#DejaVuSans-30"/>
     <use x="5247.9453125" xlink:href="#DejaVuSans-2e"/>
     <use x="5279.73242188" xlink:href="#DejaVuSans-32"/>
     <use x="5343.35546875" xlink:href="#DejaVuSans-35"/>
     <use x="5406.97851562" xlink:href="#DejaVuSans-30"/>
     <use x="5470.6015625" xlink:href="#DejaVuSans-24"/>
     <use x="5534.22460938" xlink:href="#DejaVuSans-2c"/>
     <use x="5566.01171875" xlink:href="#DejaVuSans-20"/>
     <use x="5597.79882812" xlink:href="#DejaVuSans-24"/>
     <use x="5661.421875" xlink:href="#DejaVuSans-56"/>
     <use x="5729.83007812" xlink:href="#DejaVuSans-3d"/>
     <use x="5813.61914062" xlink:href="#DejaVuSans-31"/>
     <use x="5877.2421875" xlink:href="#DejaVuSans-2e"/>
     <use x="5909.02929688" xlink:href="#DejaVuSans-30"/>
     <use x="5972.65234375" xlink:href="#DejaVuSans-30"/>
     <use x="6036.27539062" xlink:href="#DejaVuSans-30"/>
     <use x="6099.8984375" xlink:href="#DejaVuSans-24"/>
     <use x="6163.52148438" xlink:href="#DejaVuSans-2c"/>
     <use x="6195.30859375" xlink:href="#DejaVuSans-20"/>
     <use x="6227.09570312" xlink:href="#DejaVuSans-24"/>
     <use x="6290.71875" xlink:href="#DejaVuSans-5c"/>
     <use x="6324.41015625" xlink:href="#DejaVuSans-62"/>
     <use x="6387.88671875" xlink:href="#DejaVuSans-65"/>
     <use x="6449.41015625" xlink:href="#DejaVuSans-74"/>
     <use x="6488.61914062" xlink:href="#DejaVuSans-61"/>
     <use x="6549.8984375" xlink:href="#DejaVuSans-3d"/>
     <use x="6633.6875" xlink:href="#DejaVuSans-37"/>
     <use x="6697.31054688" xlink:href="#DejaVuSans-2e"/>
     <use x="6729.09765625" xlink:href="#DejaVuSans-35"/>
     <use x="6792.72070312" xlink:href="#DejaVuSans-30"/>
     <use x="6856.34375" xlink:href="#DejaVuSans-30"/>
     <use x="6919.96679688" xlink:href="#DejaVuSans-24"/>
     <use x="6983.58984375" xlink:href="#DejaVuSans-2c"/>
     <use x="7015.37695312" xlink:href="#DejaVuSans-20"/>
     <use x="7047.1640625" xlink:href="#DejaVuSans-24"/>
     <use x="7110.78710938" xlink:href="#DejaVuSans-55"/>
     <use x="7183.98046875" xlink:href="#DejaVuSans-3d"/>
     <use x="7267.76953125" xlink:href="#DejaVuSans-30"/>
     <use x="7331.39257812" xlink:href="#DejaVuSans-2e"/>
     <use x="7363.1796875" xlink:href="#DejaVuSans-30"/>
     <use x="7426.80273438" xlink:href="#DejaVuSans-30"/>
     <use x="7490.42578125" xlink:href="#DejaVuSans-30"/>
     <use x="7554.04882812" xlink:href="#DejaVuSans-24"/>
     <use x="7617.671875" xlink:href="#DejaVuSans-2c"/>
     <use x="7649.45898438" xlink:href="#DejaVuSans-6d"/>
     <use x="7746.87109375" xlink:href="#DejaVuSans-61"/>
     <use x="7808.15039062" xlink:href="#DejaVuSans-78"/>
     <use x="7867.33007812" xlink:href="#DejaVuSans-3d"/>
     <use x="7951.11914062" xlink:href="#DejaVuSans-38"/>
     <use x="8014.7421875" xlink:href="#DejaVuSans-2e"/>
     <use x="8046.52929688" xlink:href="#DejaVuSans-30"/>
     <use x="8110.15234375" xlink:href="#DejaVuSans-30"/>
     <use x="8173.77539062" xlink:href="#DejaVuSans-34"/>
     <use x="8237.3984375" xlink:href="#DejaVuSans-65"/>
     <use x="8298.921875" xlink:href="#DejaVuSans-2d"/>
     <use x="8335.00585938" xlink:href="#DejaVuSans-30"/>
     <use x="8398.62890625" xlink:href="#DejaVuSans-35"/>
    </g>
   </g>
  </g>
 </g>
 <defs>
  <clipPath id="p8deeaca9bf">
   <rect height="576.0" width="558.0" x="90.0" y="72.0"/>
  </clipPath>
 </defs>
</svg>
